<svg width="32" height="32" viewBox="0 0 32 32" fill="none" xmlns="http://www.w3.org/2000/svg">
<path fill-rule="evenodd" clip-rule="evenodd" d="M14.4698 0.0380353C11.0239 0.386514 9.00333 1.866 8.47408 4.42812C8.36 4.98037 8.34275 6.29584 8.44145 6.91154C8.50652 7.31709 8.70554 8.16731 8.77918 8.35415C8.80855 8.42865 8.75517 8.47172 8.56159 8.52973C8.21842 8.63255 7.826 8.99778 7.64735 9.38058C7.53509 9.62117 7.50134 9.80238 7.5009 10.1677C7.50021 10.692 7.59472 11.0216 7.9702 11.8046C8.14285 12.1644 8.21892 12.4243 8.26311 12.8047C8.29587 13.0873 8.35238 13.4384 8.38863 13.5848C8.48158 13.9607 8.86131 14.3687 9.27955 14.5421C9.60971 14.6789 9.6224 14.6931 9.66134 14.9699C9.82967 16.1651 10.12 16.9347 10.605 17.4705L10.9577 17.8603L10.8386 18.7999L10.7194 19.7396L10.3283 19.8861C9.66978 20.1329 9.1364 20.5748 8.80774 21.1459L8.66785 21.389L6.25569 21.9421C1.88142 22.9453 1.99887 22.9075 1.58913 23.4447C1.30129 23.8221 0.710968 25.6433 0.411183 27.079C0.135275 28.4003 -0.07425 30.5961 0.0250743 31.1255C0.0769555 31.402 0.391305 31.7768 0.668338 31.8926C0.969499 32.0184 31.0331 32.0184 31.3342 31.8926C31.6113 31.7768 31.9256 31.402 31.9775 31.1255C32.0653 30.6575 31.8834 28.5586 31.6532 27.3827C31.3614 25.8926 30.7168 23.8425 30.4162 23.4484C30.0033 22.9069 30.1249 22.9462 25.7469 21.9421L23.3347 21.389L23.1948 21.1459C22.8662 20.5748 22.3328 20.1329 21.6743 19.8861L21.2832 19.7396L21.1638 18.7989L21.0446 17.8583L21.3699 17.5023C21.5489 17.3065 21.747 17.0445 21.8102 16.9201C21.9961 16.5542 22.2353 15.7298 22.3162 15.177L22.3913 14.6632L22.6406 14.5885C22.9645 14.4915 23.462 14.0413 23.5849 13.7342C23.6381 13.6012 23.6993 13.2705 23.7209 12.9992C23.7668 12.4216 23.8276 12.2019 24.082 11.6936C24.5439 10.7707 24.6364 9.98359 24.3539 9.37708C24.1748 8.99253 23.7529 8.61693 23.4 8.5281L23.1393 8.46247L23.2586 8.04642C23.5915 6.88629 23.6807 5.35892 23.4729 4.37999C22.9742 2.0319 21.1796 0.599852 18.1403 0.124608C17.4077 0.0100944 15.2497 -0.0407866 14.4698 0.0380353ZM17.9339 1.16411C20.0277 1.47433 21.4635 2.32437 22.0575 3.6054C22.4235 4.39461 22.5255 4.87117 22.5274 5.80097C22.5294 6.71908 22.46 6.89122 22.2875 6.39598C22.0554 5.72984 21.5438 4.84173 21.1425 4.40824C20.7145 3.946 20.3389 3.72366 19.9861 3.72366C19.6339 3.72366 19.4415 3.82611 19.0024 4.24747C18.2597 4.96006 17.5494 5.18102 16.0013 5.18102C14.4532 5.18102 13.7428 4.96006 13.0002 4.24747C12.564 3.82892 12.3682 3.72366 12.026 3.72366C11.7131 3.72366 11.4521 3.85236 11.0747 4.1929C10.5374 4.67777 10.1048 5.38323 9.71454 6.41142L9.51283 6.94267L9.46069 6.63019C9.36981 6.08563 9.4175 5.04944 9.55846 4.505C9.88706 3.23591 10.5388 2.43044 11.7005 1.85731C12.5734 1.4267 13.2625 1.25624 14.8761 1.07178C15.2659 1.02728 17.4568 1.09335 17.9339 1.16411ZM12.316 5.07163C12.8237 5.59144 13.6221 5.97574 14.5949 6.16851C15.2086 6.29015 16.9561 6.27465 17.5399 6.14245C18.5018 5.92461 19.1202 5.6162 19.6731 5.07876L20.0008 4.76028L20.3299 5.10145C20.5109 5.2891 20.7638 5.64258 20.8918 5.88704C21.3072 6.68039 21.8098 8.38846 21.8131 9.01766C21.814 9.19856 21.8581 9.33001 21.9551 9.44165C22.1093 9.61905 22.271 9.6433 22.7937 9.56748C23.0892 9.52466 23.1303 9.53435 23.2781 9.68218C23.5243 9.92833 23.5024 10.3638 23.2116 11.0058C22.8449 11.8155 22.7038 12.2733 22.6566 12.8062C22.6026 13.4171 22.4867 13.5685 22.0255 13.6313C21.8579 13.6542 21.6712 13.6865 21.6106 13.7033C21.4415 13.75 21.3145 14.0586 21.3136 14.4249C21.3126 14.8344 21.1229 15.7617 20.9429 16.2368C20.74 16.7726 20.0357 17.3765 18.8454 18.0352C18.6391 18.1494 18.2734 18.4342 18.0328 18.6682C17.4804 19.2052 16.9833 19.5037 16.433 19.6289C16.0415 19.7179 15.9614 19.718 15.573 19.6297C15.0204 19.504 14.4474 19.1624 14.0258 18.7073C13.8021 18.4658 13.4659 18.2129 13.0156 17.9472C11.8528 17.2612 11.2922 16.7824 11.0927 16.3052C10.9224 15.8975 10.7555 15.1382 10.6975 14.5065C10.6352 13.8287 10.5368 13.6627 10.1968 13.662C9.90481 13.6614 9.56427 13.5349 9.47388 13.3936C9.42556 13.3179 9.3665 13.0405 9.34268 12.777C9.29636 12.265 9.15334 11.8061 8.79093 11.0058C8.51521 10.397 8.48483 9.96552 8.69848 9.69387C8.82706 9.53041 8.852 9.52385 9.18291 9.56673C9.99619 9.67205 10.0469 9.62098 10.2679 8.47347C10.5603 6.95536 11.0423 5.78034 11.6421 5.12408C11.8119 4.9383 11.9703 4.78629 11.9941 4.78629C12.0178 4.78629 12.1627 4.91468 12.316 5.07163ZM12.4499 18.8527C12.6947 18.9915 13.1319 19.3292 13.4214 19.6032C14.0564 20.2043 14.7184 20.5542 15.499 20.7014C15.9645 20.7892 16.0552 20.7887 16.5212 20.6955C17.3086 20.5379 17.9568 20.1942 18.5812 19.6032C19.0278 19.1804 19.9648 18.5427 20.0355 18.6134C20.0475 18.6254 20.1035 18.9932 20.16 19.4308L20.2625 20.2264L20.1203 20.523C19.9304 20.9186 19.309 21.5258 18.8437 21.7703C18.6365 21.8792 18.2145 22.0458 17.9061 22.1405C17.3703 22.305 17.2864 22.3127 16.0325 22.3135C14.5441 22.3144 14.1302 22.2394 13.251 21.809C12.7006 21.5396 12.0988 20.9741 11.8823 20.523L11.74 20.2264L11.8392 19.4577C11.8937 19.0348 11.9383 18.669 11.9383 18.6446C11.9383 18.5707 11.9877 18.5909 12.4499 18.8527ZM11.1257 21.2984C11.6498 22.1189 12.5529 22.806 13.4567 23.0719C13.6701 23.1347 13.8552 23.1937 13.8678 23.203C13.8805 23.2123 13.7219 23.4112 13.5154 23.6449C13.3089 23.8786 13.0286 24.2433 12.8925 24.4554L12.645 24.841L11.1643 23.2805L9.68366 21.72L9.80411 21.551C9.87037 21.4581 9.97682 21.335 10.0407 21.2776C10.1915 21.1419 10.7013 20.8514 10.7819 20.8551C10.8163 20.8567 10.971 21.0562 11.1257 21.2984ZM21.5595 21.0045C21.8998 21.1769 22.3355 21.6403 22.2657 21.7556C22.241 21.7964 21.5765 22.5073 20.7892 23.3354L19.3575 24.8409L19.1101 24.4554C18.974 24.2433 18.6937 23.8786 18.4872 23.6449C18.2807 23.4112 18.1221 23.2128 18.1348 23.2041C18.1474 23.1954 18.3266 23.1375 18.5328 23.0755C19.4668 22.7947 20.3499 22.1256 20.8769 21.2991C21.0316 21.0565 21.1801 20.8564 21.2071 20.8544C21.234 20.8523 21.3926 20.9199 21.5595 21.0045ZM8.59028 23.1166C8.81162 26.0566 9.58308 28.7487 10.683 30.419L10.9886 30.8831L9.2663 30.8998C8.319 30.9089 7.53371 30.9061 7.52121 30.8936C7.50871 30.8811 7.56822 30.7461 7.65348 30.5935C8.32525 29.3916 7.94245 27.8372 6.79113 27.0921C6.57954 26.9551 6.28688 26.811 6.14074 26.7718L5.87508 26.7004V24.9114V23.1223L7.1096 22.8367C7.78856 22.6797 8.38969 22.5483 8.44545 22.5448C8.52915 22.5395 8.55434 22.639 8.59028 23.1166ZM24.8617 22.8321L26.1275 23.1266V24.108V25.0894L25.8374 25.1883C24.9763 25.4817 24.3243 26.1828 24.0872 27.0702C23.9745 27.4921 23.9742 28.9135 24.0867 29.1828C24.206 29.4684 24.5719 29.7689 24.8595 29.8175C25.2011 29.8752 25.4278 29.7711 25.5387 29.5055C25.6581 29.2197 25.5598 28.9856 25.2643 28.8516L25.0574 28.7579L25.0788 28.0078C25.1023 27.1869 25.1632 26.9964 25.525 26.6115C25.8487 26.2673 26.1597 26.1365 26.6588 26.1348C27.0263 26.1336 27.1489 26.1624 27.4248 26.315C28.0591 26.6656 28.246 27.0668 28.25 28.0859C28.2523 28.6797 28.2377 28.7891 28.1562 28.7891C28.103 28.7891 27.9905 28.8582 27.9061 28.9426C27.6184 29.2302 27.7613 29.7263 28.1607 29.8265C28.5073 29.9135 29.0051 29.6524 29.1923 29.2854C29.3726 28.9318 29.3711 27.4825 29.1897 26.8952C28.9491 26.1163 28.2908 25.4468 27.5163 25.1935L27.1901 25.0868V24.2502C27.1901 23.5642 27.2063 23.4135 27.28 23.4135C27.5268 23.4135 29.3047 23.8687 29.4404 23.9667C29.7524 24.1919 30.4767 26.6548 30.7227 28.327C30.8065 28.8969 30.9524 30.8599 30.9139 30.8991C30.9052 30.9079 28.6742 30.9079 25.9561 30.8991L21.014 30.8831L21.3196 30.419C22.4042 28.7718 23.1959 26.0092 23.4125 23.1166C23.4394 22.7574 23.4824 22.5382 23.5259 22.538C23.5644 22.5378 24.1656 22.6701 24.8617 22.8321ZM11.1167 24.7658C11.7413 25.4235 12.3368 25.9967 12.4402 26.0396C12.826 26.1994 13.2505 25.9966 13.5322 25.5176C13.5887 25.4214 13.6441 25.436 14.1104 25.6697C14.394 25.8118 14.6261 25.9488 14.6261 25.9742C14.6261 26.0208 13.6111 30.2476 13.496 30.68L13.4337 30.9144H12.9418H12.4499L12.1547 30.5862C11.3247 29.6635 10.6563 28.2625 10.2142 26.5187C10.0411 25.8358 9.78748 24.3845 9.72066 23.6948L9.67822 23.2572L9.82961 23.4135C9.91293 23.4994 10.4921 24.108 11.1167 24.7658ZM22.2221 24.1753C21.8595 27.0379 21.0335 29.2683 19.8479 30.5862L19.5526 30.9144H19.0626C18.6504 30.9144 18.5671 30.897 18.5387 30.805C18.4604 30.5517 17.3764 26.0079 17.3764 25.9331C17.3764 25.8881 17.4163 25.8513 17.465 25.8513C17.5137 25.8513 17.7452 25.7496 17.9793 25.6254C18.3747 25.4157 18.4096 25.4076 18.4689 25.5117C18.5041 25.5733 18.6172 25.7189 18.7204 25.8352C18.9505 26.0944 19.3149 26.1688 19.6095 26.0165C19.7143 25.9623 20.3587 25.3292 21.0416 24.6096C21.7245 23.8901 22.2932 23.3108 22.3054 23.3222C22.3176 23.3337 22.2801 23.7176 22.2221 24.1753ZM4.81245 25.0699C4.81245 26.6449 4.8067 26.7264 4.69582 26.7264C4.63168 26.7264 4.38234 26.8249 4.14175 26.9452C3.60062 27.2159 3.1847 27.6469 2.92129 28.2098C2.57256 28.955 2.61919 29.9253 3.03856 30.6487L3.19251 30.9144H2.11839H1.0442L1.08614 30.2112C1.17984 28.6393 1.44731 27.0684 1.84442 25.7585C2.19977 24.586 2.40036 24.0874 2.56538 23.9659C2.70764 23.8612 4.35653 23.4336 4.67181 23.4197L4.81245 23.4135V25.0699ZM16.9076 23.711C17.1139 23.8165 17.4056 24.0293 17.5557 24.1837L17.8287 24.4646L17.587 24.6242C16.7854 25.1533 15.2771 25.1693 14.4697 24.6571L14.1713 24.4679L14.4143 24.2168C14.6757 23.9469 15.0622 23.6965 15.429 23.5593C15.8093 23.4172 16.4646 23.4844 16.9076 23.711ZM16.3138 26.1263C16.3138 26.1399 16.5496 27.1314 16.8378 28.3296C17.126 29.5278 17.3814 30.5995 17.4054 30.7112L17.4489 30.9144H16.0013H14.5537L14.5972 30.7112C14.6211 30.5995 14.8765 29.5278 15.1647 28.3296C15.453 27.1314 15.6887 26.1399 15.6887 26.1263C15.6887 26.1125 15.8294 26.1013 16.0013 26.1013C16.1732 26.1013 16.3138 26.1125 16.3138 26.1263ZM6.14774 27.9369C6.83244 28.3382 7.1256 29.2986 6.7755 29.9935C6.63173 30.2788 6.32395 30.5901 6.03135 30.7461C5.63793 30.9559 5.00348 30.9361 4.5778 30.7007C4.02936 30.3976 3.75652 29.93 3.75395 29.2892C3.75145 28.6692 4.08168 28.1504 4.65619 27.8715C5.08655 27.6626 5.72769 27.6908 6.14774 27.9369Z" fill="#333333"/>
</svg>
