<svg width="30" height="32" viewBox="0 0 30 32" fill="none" xmlns="http://www.w3.org/2000/svg">
<path fill-rule="evenodd" clip-rule="evenodd" d="M8.60906 6.84256V13.6851L8.46844 13.7101C7.13181 13.9481 6.54756 14.1566 5.7495 14.6807C4.47956 15.5147 3.59144 16.7284 3.15975 18.2199C3.01644 18.7149 3.01531 18.7457 3.01531 22.2602V25.8016L3.20513 26.0727C3.31431 26.2285 3.52681 26.4162 3.70513 26.5142L4.01531 26.6846L5.41306 26.6861L6.81075 26.6875L6.77475 26.9531C6.75494 27.0993 6.72137 27.3461 6.70013 27.5018L6.66156 27.7847L5.77594 28.0273C2.29281 28.9811 1.78681 29.17 1.14556 29.7561C0.636938 30.2209 0.404625 30.7271 0.370313 31.4452L0.34375 32H7.16394H13.9841V31.5312V31.0625H7.66756H1.35106L1.49569 30.8044C1.84838 30.1752 2.29781 29.9704 4.96544 29.2235L7.10313 28.625L9.05919 28.6253L11.0153 28.6257L13.1401 29.2216C15.2791 29.8214 15.7717 29.9959 16.1576 30.2902C16.3666 30.4496 16.7341 30.9081 16.7341 31.0094C16.7341 31.0386 16.3263 31.0625 15.8278 31.0625H14.9216V31.5312V32H16.334H17.7465L17.7246 31.4516C17.6961 30.7342 17.4621 30.2292 16.9301 29.7366C16.4298 29.2735 15.8351 29.0014 14.5153 28.6319C13.8966 28.4586 12.9544 28.1949 12.4216 28.0459L11.4528 27.7749L11.3812 27.2781C11.3418 27.0048 11.3277 26.7617 11.3499 26.7377C11.3721 26.7138 12.0278 26.6856 12.807 26.6752L14.2237 26.6562L14.4945 26.4664C14.6434 26.362 14.8333 26.1722 14.9164 26.0446L15.0675 25.8125H22.4008H29.7341V12.9062V0H19.1716H8.60906V6.84256ZM28.7966 12.9062V24.875H21.9841H15.1716V24.4062V23.9375H21.5153H27.8591V12.9062V1.875H19.1716H10.4841V3.28125V4.6875H10.9528H11.4216V3.75V2.8125H19.1716H26.9216V11.9368V21.0609L26.5934 20.8545C26.413 20.7409 26.1201 20.5869 25.9427 20.5121C25.6847 20.4035 23.0602 19.6427 21.8192 19.3169C21.571 19.2517 21.559 19.2371 21.5207 18.9526C21.4987 18.7896 21.4649 18.5508 21.4456 18.4219L21.4106 18.1875H22.7134C23.4299 18.1875 24.1119 18.16 24.2291 18.1264C24.5719 18.0281 24.8924 17.7671 25.0693 17.4421L25.2341 17.1393V13.8564C25.2341 10.2607 25.2223 10.1109 24.8614 9.11763C24.3376 7.676 23.1296 6.372 21.7104 5.71631C19.7789 4.82387 17.3618 5.046 15.6501 6.27325C15.2089 6.58956 14.409 7.39888 14.1287 7.8125C13.8783 8.18225 13.5588 8.82088 13.4097 9.24975C13.1176 10.0907 13.0967 10.3049 13.0649 12.7898L13.0344 15.1733L12.6225 14.8615C12.396 14.6901 12.0331 14.4623 11.8161 14.3553L11.4216 14.1607V9.89281V5.625H10.9528H10.4841V9.72594V13.8269L10.1247 13.7847C9.92706 13.7616 9.71612 13.7283 9.65594 13.7108C9.55269 13.6809 9.54656 13.3219 9.54656 7.30831V0.9375H19.1716H28.7966V12.9062ZM20.3903 6.25588C21.9056 6.62131 23.1513 7.6415 23.8241 9.06806C24.2688 10.0107 24.2593 9.91638 24.2816 13.6341L24.3016 16.9869L24.1344 17.1184C23.9834 17.2372 23.8864 17.25 23.1323 17.25H22.2974L22.5875 16.8281C23.2742 15.8296 23.3569 15.4471 23.3581 13.2656L23.3591 11.5625H21.1071C18.6533 11.5625 18.6371 11.5604 18.2248 11.1984C18.0101 11.0099 17.8421 10.7009 17.7686 10.3594C17.7323 10.1905 17.7236 10.1875 17.2641 10.1875C16.8055 10.1875 16.7966 10.1905 16.7966 10.3457C16.7966 10.7234 16.4519 11.2237 16.0629 11.4104C15.9336 11.4725 15.6309 11.5392 15.3903 11.5586L14.9528 11.5938L14.9549 13.2812C14.9567 14.6871 14.9753 15.0366 15.0664 15.375C15.2124 15.9175 15.4987 16.5191 15.8022 16.921L16.0506 17.25H15.3377H14.6249L14.3045 16.7081L13.9841 16.1662L13.9846 13.6925C13.9849 12.3319 14.0132 10.9733 14.0476 10.6734C14.1754 9.55781 14.6531 8.53631 15.4288 7.71962C16.734 6.34562 18.5459 5.81106 20.3903 6.25588ZM19.6091 7.96875V8.4375H20.0778H20.5466V7.96875V7.5H20.0778H19.6091V7.96875ZM21.4841 8.90625V9.375H21.9528H22.4216V8.90625V8.4375H21.9528H21.4841V8.90625ZM17.5911 11.8806C17.7436 12.0212 18.0281 12.211 18.2231 12.3025L18.5778 12.4688L20.4997 12.4877L22.4216 12.5067V13.6777C22.4216 14.5276 22.3953 14.9495 22.3259 15.2161C21.9521 16.6513 20.6871 17.6357 19.2028 17.6464C17.7341 17.6569 16.4806 16.7577 16.0366 15.375C15.9289 15.0393 15.9008 14.7546 15.8747 13.7354C15.8449 12.5692 15.8495 12.5001 15.9605 12.4637C16.3214 12.3453 16.8556 12.0412 17.0432 11.8474C17.1617 11.7251 17.271 11.625 17.2862 11.625C17.3014 11.625 17.4386 11.74 17.5911 11.8806ZM10.4191 14.8128C12.1899 15.3158 13.5648 16.7206 14.0587 18.5312C14.1886 19.0075 14.1962 19.1797 14.219 22.1562C14.2352 24.2719 14.2215 25.3377 14.1764 25.4561C14.039 25.8172 14.106 25.8125 9.11887 25.8125C6.61269 25.8125 4.47625 25.7953 4.37119 25.7743C4.26619 25.7533 4.12069 25.6806 4.04788 25.6128C3.91581 25.4897 3.91556 25.4827 3.93419 22.1354L3.95281 18.7812L4.15913 18.1875C4.42956 17.4093 4.772 16.8421 5.31931 16.2657C6.06544 15.4801 6.96606 14.9646 7.98156 14.7421C8.67731 14.5897 9.74244 14.6206 10.4191 14.8128ZM9.54656 16.534V17.0055L9.99969 16.9871L10.4528 16.9688L10.4712 16.5156L10.4896 16.0625H10.0181H9.54656V16.534ZM11.4216 17.4715V17.943L11.8747 17.9246L12.3278 17.9062L12.3462 17.4531L12.3646 17H11.8931H11.4216V17.4715ZM16.8984 18.2969C16.8809 18.357 16.8479 18.5934 16.825 18.8221L16.7833 19.2379L15.9944 19.4589C15.1149 19.7052 15.1124 19.7046 15.1087 19.25C15.1075 19.0953 15.0696 18.793 15.0246 18.5781L14.9427 18.1875H15.9364C16.8531 18.1875 16.9276 18.1959 16.8984 18.2969ZM20.5839 19.0646C20.7011 20.0452 20.5203 20.5207 19.8933 20.8804C19.6333 21.0295 19.5053 21.0614 19.1658 21.0619C18.6567 21.0626 18.2929 20.8896 18.0014 20.5082C17.6994 20.1131 17.6534 19.8624 17.7406 19.0871L17.815 18.426L18.0089 18.4605C18.8811 18.6154 19.1994 18.6353 19.6816 18.5648C19.958 18.5244 20.2446 18.4684 20.3185 18.4404C20.3924 18.4124 20.4656 18.4014 20.4811 18.4158C20.4967 18.4303 20.5429 18.7222 20.5839 19.0646ZM16.9142 20.5C17.0084 20.7936 17.3939 21.2924 17.7169 21.5388C18.1735 21.8871 18.6172 22.0156 19.2653 21.9873C19.7077 21.9681 19.9054 21.9271 20.1909 21.7957C20.6634 21.5782 21.1717 21.059 21.3622 20.5995C21.4452 20.3993 21.5463 20.25 21.599 20.25C21.801 20.25 25.3532 21.2761 25.7128 21.4384C26.3864 21.7423 26.9164 22.3523 26.9202 22.8281L26.9216 23H21.0466H15.1716V21.8274V20.6549L15.9684 20.4326C16.4067 20.3102 16.783 20.2262 16.8046 20.2457C16.8263 20.2652 16.8756 20.3797 16.9142 20.5ZM10.3848 26.9375C10.405 27.075 10.4381 27.3 10.4583 27.4375L10.4951 27.6875H9.05087H7.60669L7.63569 27.5469C7.65169 27.4695 7.68306 27.2656 7.7055 27.0938C7.72788 26.9219 7.75919 26.7602 7.77506 26.7344C7.79094 26.7086 8.37637 26.6875 9.076 26.6875H10.3481L10.3848 26.9375Z" fill="#333333"/>
</svg>
